<svg width="24" height="16" viewBox="0 0 24 16" fill="none" xmlns="http://www.w3.org/2000/svg">
<path d="M7.107 0C7.825 0 8.48033 0.0633334 9.073 0.19C9.665 0.316667 10.1727 0.524667 10.596 0.814C11.0187 1.104 11.3463 1.48833 11.579 1.967C11.8123 2.447 11.929 3.03933 11.929 3.744C11.929 4.50533 11.756 5.13967 11.41 5.647C11.0647 6.15433 10.5537 6.57033 9.877 6.895C10.807 7.163 11.5013 7.63167 11.96 8.301C12.4187 8.97033 12.648 9.77767 12.648 10.723C12.648 11.4837 12.4997 12.143 12.203 12.701C11.9191 13.2439 11.5098 13.7111 11.009 14.064C10.5083 14.4173 9.937 14.6783 9.295 14.847C8.64979 15.017 7.98522 15.1023 7.318 15.101H0V0H7.107ZM6.683 6.113C7.275 6.113 7.76167 5.97167 8.143 5.689C8.523 5.40767 8.713 4.94967 8.713 4.315C8.713 3.96167 8.64967 3.67267 8.523 3.448C8.4041 3.22942 8.2291 3.04647 8.016 2.918C7.79024 2.78743 7.54306 2.69803 7.286 2.654C7.00299 2.60476 6.71626 2.58 6.429 2.58H3.32V6.113H6.683ZM6.873 12.521C7.19767 12.521 7.508 12.489 7.804 12.425C8.1 12.3617 8.361 12.256 8.587 12.108C8.81233 11.96 8.992 11.759 9.126 11.505C9.25933 11.2517 9.326 10.9273 9.326 10.532C9.326 9.75733 9.10767 9.204 8.671 8.872C8.23433 8.54067 7.65633 8.375 6.937 8.375H3.32V12.52L6.873 12.521ZM16.826 12.203C17.2773 12.641 17.926 12.8597 18.772 12.859C19.3787 12.859 19.9003 12.7073 20.337 12.404C20.7737 12.102 21.0417 11.7813 21.141 11.442H23.785C23.3617 12.754 22.713 13.6917 21.839 14.255C20.9643 14.819 19.9067 15.101 18.666 15.101C17.806 15.101 17.0307 14.9633 16.34 14.688C15.6748 14.4322 15.075 14.0315 14.584 13.515C14.0947 12.9901 13.717 12.3712 13.474 11.696C13.2133 10.9913 13.083 10.2157 13.083 9.369C13.083 8.55167 13.217 7.79067 13.485 7.086C13.7387 6.4054 14.1271 5.78299 14.627 5.256C15.1285 4.7367 15.729 4.32321 16.393 4.04C17.0763 3.744 17.834 3.596 18.666 3.596C19.596 3.596 20.407 3.776 21.099 4.136C21.789 4.49533 22.3563 4.978 22.801 5.584C23.245 6.19067 23.566 6.88133 23.764 7.656C23.9633 8.45061 24.0345 9.27194 23.975 10.089H16.087C16.1297 11.0617 16.3753 11.7663 16.826 12.203ZM20.222 6.451C19.862 6.05633 19.3153 5.859 18.582 5.859C18.1027 5.859 17.7047 5.94 17.388 6.102C17.1093 6.23499 16.8617 6.42518 16.6613 6.66018C16.4609 6.89519 16.3123 7.16975 16.225 7.466C16.1532 7.70032 16.1069 7.94173 16.087 8.186H20.973C20.8317 7.424 20.5813 6.84567 20.222 6.451ZM15.574 0.767H21.678V2.459H15.574V0.767Z" fill="black"/>
</svg>
